<svg width="38" height="24" viewBox="0 0 38 24" fill="none" xmlns="http://www.w3.org/2000/svg">
<rect width="38" height="24" rx="12" fill="white"/>
<path fill-rule="evenodd" clipRule="evenodd" d="M25.7493 12C25.7493 12.1989 25.6703 12.3897 25.5297 12.5304C25.389 12.671 25.1983 12.75 24.9993 12.75H14.8093L17.5293 15.47C17.6618 15.6122 17.7339 15.8003 17.7305 15.9946C17.7271 16.1889 17.6484 16.3742 17.511 16.5117C17.3735 16.6491 17.1882 16.7278 16.9939 16.7312C16.7996 16.7346 16.6115 16.6625 16.4693 16.53L12.4693 12.53C12.3289 12.3894 12.25 12.1988 12.25 12C12.25 11.8013 12.3289 11.6107 12.4693 11.47L16.4693 7.47003C16.6115 7.33755 16.7996 7.26543 16.9939 7.26886C17.1882 7.27228 17.3735 7.351 17.511 7.48841C17.6484 7.62582 17.7271 7.81121 17.7305 8.00551C17.7339 8.19981 17.6618 8.38786 17.5293 8.53003L14.8093 11.25H24.9993C25.1983 11.25 25.389 11.329 25.5297 11.4697C25.6703 11.6104 25.7493 11.8011 25.7493 12Z" fill="#2C8EE8"/>
</svg>
