<svg width="221" height="48" viewBox="0 0 221 48" fill="none" xmlns="http://www.w3.org/2000/svg">
<rect width="221" height="48" rx="10" fill="white"/>
<mask id="mask0_479_7200" style="mask-type:alpha" maskUnits="userSpaceOnUse" x="16" y="4" width="40" height="40">
<rect x="16" y="4" width="40" height="40" fill="#D9D9D9"/>
</mask>
<g mask="url(#mask0_479_7200)">
<rect x="17" y="12" width="38" height="24" rx="12" fill="#2C8EE8"/>
<path fill-rule="evenodd" clipRule="evenodd" d="M42.7493 24C42.7493 24.1989 42.6703 24.3896 42.5297 24.5303C42.389 24.671 42.1983 24.75 41.9993 24.75H31.8093L34.5293 27.47C34.6618 27.6121 34.7339 27.8002 34.7305 27.9945C34.7271 28.1888 34.6484 28.3742 34.511 28.5116C34.3735 28.649 34.1882 28.7277 33.9939 28.7311C33.7996 28.7346 33.6115 28.6625 33.4693 28.53L29.4693 24.53C29.3289 24.3893 29.25 24.1987 29.25 24C29.25 23.8012 29.3289 23.6106 29.4693 23.47L33.4693 19.47C33.6115 19.3375 33.7996 19.2654 33.9939 19.2688C34.1882 19.2722 34.3735 19.3509 34.511 19.4883C34.6484 19.6258 34.7271 19.8111 34.7305 20.0054C34.7339 20.1997 34.6618 20.3878 34.5293 20.53L31.8093 23.25H41.9993C42.1983 23.25 42.389 23.329 42.5297 23.4696C42.6703 23.6103 42.7493 23.8011 42.7493 24Z" fill="white"/>
</g>
<path d="M68.4338 31.5191C68.1029 31.5191 67.7826 31.4809 67.4729 31.4045C67.1675 31.3282 66.879 31.2158 66.6075 31.0673C66.3402 30.923 66.092 30.7448 65.8629 30.5327C65.6338 30.3248 65.4345 30.0873 65.2648 29.82C65.0654 29.4933 64.9105 29.1497 64.8002 28.7891C64.6941 28.4285 64.6411 28.0318 64.6411 27.5991C64.6411 27.0433 64.7238 26.4685 64.8893 25.8745C65.059 25.2806 65.3093 24.6379 65.6402 23.9464L66.8938 24.5445C66.6011 25.1427 66.3826 25.6879 66.2384 26.18C66.0941 26.6721 66.022 27.143 66.022 27.5927C66.022 27.9024 66.056 28.1739 66.1238 28.4073C66.196 28.6406 66.302 28.8676 66.442 29.0882C66.6541 29.4191 66.9299 29.6736 67.2693 29.8518C67.6129 30.0342 68.0011 30.1255 68.4338 30.1255H69.7511C70.222 30.1255 70.6038 30.0809 70.8966 29.9918C71.1935 29.907 71.4226 29.7797 71.5838 29.61C71.7493 29.4445 71.8617 29.2409 71.9211 28.9991C71.9805 28.7573 72.0102 28.4815 72.0102 28.1718V23.6982H73.4038V25.7727C73.4123 26.0824 73.5099 26.3158 73.6966 26.4727C73.8875 26.6255 74.1378 26.7018 74.4475 26.7018H74.8866V28.0955H74.4475C74.2693 28.0955 74.089 28.0848 73.9066 28.0636C73.7241 28.0467 73.5566 27.983 73.4038 27.8727V28.1718C73.4038 29.3173 73.0963 30.1615 72.4811 30.7045C71.8702 31.2476 70.9602 31.5191 69.7511 31.5191H68.4338ZM68.402 23.2209L69.4584 22.1518L70.5402 23.2336L69.4711 24.3027L68.402 23.2209ZM79.3353 22.7945C79.3437 22.82 79.3607 22.89 79.3862 23.0045C79.4116 23.1148 79.4413 23.2527 79.4753 23.4182C79.5134 23.5836 79.5495 23.7661 79.5834 23.9655C79.6216 24.1648 79.6556 24.3664 79.6853 24.57C79.7192 24.7694 79.7468 24.9645 79.768 25.1555C79.7892 25.3421 79.7998 25.5055 79.7998 25.6455C79.7998 26.0655 79.7298 26.4303 79.5898 26.74C79.4498 27.0497 79.2674 27.3042 79.0425 27.5036C78.8219 27.703 78.5716 27.8515 78.2916 27.9491C78.0116 28.0467 77.7316 28.0955 77.4516 28.0955H74.6198V26.7018H77.4962C77.5513 26.7018 77.6319 26.6933 77.738 26.6764C77.8483 26.6594 77.9565 26.617 78.0625 26.5491C78.1686 26.477 78.2598 26.3709 78.3362 26.2309C78.4168 26.0909 78.4571 25.8958 78.4571 25.6455C78.4571 25.5521 78.4486 25.4355 78.4316 25.2955C78.4146 25.1555 78.3934 25.0048 78.368 24.8436C78.3425 24.6824 78.3128 24.517 78.2789 24.3473C78.2449 24.1776 78.211 24.0185 78.1771 23.87C78.1474 23.7215 78.1177 23.5879 78.088 23.4691C78.0583 23.3503 78.0349 23.2591 78.018 23.1955L79.3353 22.7945ZM78.5589 31.4618L77.5534 30.4436L78.5462 29.4127L79.5771 30.4436L78.5589 31.4618ZM76.1343 31.4491L75.1289 30.4309L76.1216 29.4L77.1525 30.4309L76.1343 31.4491ZM81.1845 28.0827V26.6891H83.8191C84.3324 26.6891 84.7461 26.6467 85.06 26.5618C85.3739 26.4727 85.6157 26.3285 85.7854 26.1291C85.9594 25.9297 86.0739 25.6688 86.1291 25.3464C86.1885 25.0197 86.2182 24.6167 86.2182 24.1373V18.9255H87.6054V25.5945C87.6054 25.7558 87.6309 25.9042 87.6818 26.04C87.7327 26.1758 87.8027 26.2924 87.8918 26.39C87.9851 26.4876 88.0954 26.5639 88.2227 26.6191C88.3542 26.6742 88.4964 26.7018 88.6491 26.7018H89.0627V28.0955H88.6491C88.2376 28.0955 87.8727 28.0085 87.5545 27.8345C87.2406 27.6564 86.9691 27.4209 86.74 27.1282C86.4345 27.4379 86.0442 27.6755 85.5691 27.8409C85.0939 28.0021 84.5106 28.0827 83.8191 28.0827H81.1845ZM81.9609 25.8873L81.5091 19.1609L82.89 19.0018L83.3482 25.8873H81.9609ZM92.3402 22.7945C92.3487 22.82 92.3656 22.89 92.3911 23.0045C92.4166 23.1148 92.4462 23.2527 92.4802 23.4182C92.5184 23.5836 92.5544 23.7661 92.5884 23.9655C92.6266 24.1648 92.6605 24.3664 92.6902 24.57C92.7241 24.7694 92.7517 24.9645 92.7729 25.1555C92.7941 25.3421 92.8047 25.5055 92.8047 25.6455C92.8047 26.0655 92.7347 26.4303 92.5947 26.74C92.4547 27.0497 92.2723 27.3042 92.0475 27.5036C91.8269 27.703 91.5766 27.8515 91.2966 27.9491C91.0166 28.0467 90.7366 28.0955 90.4566 28.0955H88.7384V26.7018H90.5011C90.5562 26.7018 90.6369 26.6933 90.7429 26.6764C90.8532 26.6594 90.9614 26.617 91.0675 26.5491C91.1735 26.477 91.2647 26.3709 91.3411 26.2309C91.4217 26.0909 91.462 25.8958 91.462 25.6455C91.462 25.5521 91.4535 25.4355 91.4366 25.2955C91.4196 25.1555 91.3984 25.0048 91.3729 24.8436C91.3475 24.6824 91.3178 24.517 91.2838 24.3473C91.2499 24.1776 91.2159 24.0185 91.182 23.87C91.1523 23.7215 91.1226 23.5879 91.0929 23.4691C91.0632 23.3503 91.0399 23.2591 91.0229 23.1955L92.3402 22.7945ZM90.1829 20.1918L91.2393 19.1227L92.3211 20.2045L91.252 21.2736L90.1829 20.1918ZM97.5958 28.0955H96.2022V19.8736H97.5958V28.0955ZM99.6894 18.8936H96.5713C96.3125 18.8936 96.094 18.9042 95.9158 18.9255C95.7376 18.9467 95.587 18.9891 95.464 19.0527C95.3452 19.1164 95.2455 19.2097 95.1649 19.3327C95.0843 19.4515 95.0143 19.6106 94.9549 19.81L93.8604 19.4855C93.9664 19.1248 94.1128 18.8236 94.2994 18.5818C94.4861 18.3358 94.7067 18.1448 94.9613 18.0091C95.1819 17.8988 95.4258 17.8267 95.6931 17.7927C95.9604 17.7588 96.2531 17.7418 96.5713 17.7418H99.6894V18.8936ZM107.315 28.0955C106.921 28.0955 106.558 28.0361 106.227 27.9173C105.9 27.7942 105.616 27.6267 105.374 27.4145C105.137 27.1982 104.952 26.9436 104.821 26.6509C104.689 26.3582 104.623 26.0379 104.623 25.69C104.623 25.3379 104.668 25.0155 104.757 24.7227C104.85 24.43 104.975 24.1542 105.132 23.8955C105.289 23.6367 105.47 23.3885 105.673 23.1509C105.881 22.9133 106.098 22.6758 106.322 22.4382L105.922 21.9927L106.952 21.0573C107.05 21.1676 107.158 21.2885 107.277 21.42C107.4 21.5473 107.512 21.6661 107.614 21.7764C107.915 22.0988 108.21 22.4191 108.499 22.7373C108.787 23.0512 109.044 23.3673 109.269 23.6855C109.494 23.9994 109.674 24.3155 109.81 24.6336C109.941 24.9476 110.007 25.2594 110.007 25.5691V25.6009C110.003 25.9615 109.931 26.2967 109.791 26.6064C109.655 26.9118 109.453 27.1855 109.186 27.4273C108.94 27.6394 108.66 27.8048 108.346 27.9236C108.032 28.0382 107.689 28.0955 107.315 28.0955ZM107.239 23.3036C107.065 23.4988 106.904 23.6876 106.755 23.87C106.607 24.0524 106.477 24.2391 106.367 24.43C106.257 24.6209 106.17 24.8203 106.106 25.0282C106.047 25.2318 106.017 25.4524 106.017 25.69C106.017 25.8639 106.053 26.0145 106.125 26.1418C106.197 26.2691 106.293 26.3752 106.412 26.46C106.535 26.5406 106.675 26.6021 106.832 26.6445C106.989 26.6827 107.15 26.7018 107.315 26.7018C107.722 26.7018 108.041 26.6021 108.27 26.4027C108.499 26.1991 108.613 25.9318 108.613 25.6009C108.613 25.4015 108.575 25.2042 108.499 25.0091C108.422 24.8139 108.321 24.6209 108.193 24.43C108.066 24.2391 107.92 24.0503 107.754 23.8636C107.589 23.6727 107.417 23.4861 107.239 23.3036ZM114.045 27.7964C114.02 28.3648 113.914 28.8782 113.727 29.3364C113.544 29.7945 113.288 30.1848 112.957 30.5073C112.63 30.8297 112.236 31.0779 111.773 31.2518C111.311 31.4258 110.787 31.5127 110.201 31.5127H109.323V30.1191H110.201C110.626 30.1191 110.991 30.0745 111.296 29.9855C111.606 29.8964 111.86 29.7542 112.06 29.5591C112.259 29.3682 112.407 29.1158 112.505 28.8018C112.603 28.4921 112.651 28.1145 112.651 27.6691V23.6982H114.045V27.7964ZM116.048 30.1191C116.706 30.1191 117.245 30.0724 117.665 29.9791C118.085 29.8858 118.415 29.7394 118.657 29.54C118.755 29.4594 118.84 29.3724 118.912 29.2791C118.988 29.19 119.05 29.0861 119.096 28.9673C119.147 28.8527 119.185 28.7233 119.211 28.5791C119.241 28.4391 119.258 28.2779 119.262 28.0955H118.186C117.877 28.0955 117.563 28.053 117.245 27.9682C116.931 27.8791 116.644 27.7327 116.385 27.5291C116.131 27.3255 115.921 27.0561 115.755 26.7209C115.594 26.3858 115.514 25.9721 115.514 25.48C115.514 25.1915 115.537 24.9327 115.584 24.7036C115.635 24.4745 115.698 24.2709 115.775 24.0927C115.851 23.9103 115.936 23.7533 116.029 23.6218C116.122 23.4903 116.214 23.3758 116.303 23.2782C116.545 23.0364 116.82 22.8497 117.13 22.7182C117.444 22.5824 117.781 22.5145 118.142 22.5145C118.456 22.5145 118.749 22.5633 119.02 22.6609C119.296 22.7585 119.542 22.9048 119.758 23.1C120.051 23.3758 120.272 23.7236 120.42 24.1436C120.573 24.5636 120.649 25.0664 120.649 25.6518V28C120.649 28.3055 120.626 28.5855 120.579 28.84C120.532 29.0988 120.462 29.3342 120.369 29.5464C120.28 29.7627 120.165 29.9579 120.025 30.1318C119.885 30.31 119.72 30.4755 119.529 30.6282C119.338 30.7767 119.128 30.9061 118.899 31.0164C118.67 31.1309 118.413 31.2242 118.129 31.2964C117.845 31.3685 117.531 31.4215 117.187 31.4555C116.848 31.4936 116.468 31.5127 116.048 31.5127V30.1191ZM118.142 23.9082C117.752 23.9082 117.448 24.0439 117.232 24.3155C117.015 24.5827 116.907 24.9709 116.907 25.48C116.907 25.7345 116.945 25.9403 117.022 26.0973C117.098 26.2542 117.211 26.3815 117.359 26.4791C117.431 26.5258 117.508 26.5639 117.588 26.5936C117.673 26.6191 117.754 26.6403 117.83 26.6573C117.906 26.6742 117.974 26.687 118.034 26.6955C118.097 26.6997 118.148 26.7018 118.186 26.7018H119.262V25.6518C119.262 25.3548 119.241 25.1067 119.198 24.9073C119.156 24.7036 119.101 24.5382 119.033 24.4109C118.965 24.2836 118.889 24.1861 118.804 24.1182C118.723 24.0461 118.64 23.9952 118.555 23.9655C118.475 23.9358 118.396 23.9188 118.32 23.9145C118.248 23.9103 118.189 23.9082 118.142 23.9082ZM125.561 28.0955C125.12 28.0955 124.742 28.0679 124.428 28.0127C124.114 27.9576 123.849 27.8748 123.633 27.7645C123.421 27.6542 123.249 27.5164 123.117 27.3509C122.99 27.1812 122.893 26.9839 122.825 26.7591C122.757 26.53 122.712 26.2733 122.691 25.9891C122.67 25.7048 122.659 25.3888 122.659 25.0409V18.9191H124.053V25.0409C124.053 25.3973 124.064 25.6858 124.085 25.9064C124.11 26.1227 124.172 26.2903 124.269 26.4091C124.371 26.5279 124.522 26.6064 124.721 26.6445C124.925 26.6827 125.205 26.7018 125.561 26.7018V28.0955ZM125.258 26.7018H126.06C126.331 26.7018 126.55 26.6785 126.715 26.6318C126.885 26.5852 127.016 26.5173 127.11 26.4282C127.203 26.3348 127.265 26.2224 127.294 26.0909C127.328 25.9594 127.345 25.8109 127.345 25.6455V23.6982H128.739V25.6136C128.739 25.9912 128.828 26.267 129.006 26.4409C129.188 26.6106 129.477 26.6976 129.871 26.7018C129.939 26.6976 130.024 26.6848 130.126 26.6636C130.232 26.6382 130.332 26.5894 130.425 26.5173C130.523 26.4409 130.605 26.3348 130.673 26.1991C130.741 26.0591 130.775 25.8745 130.775 25.6455V23.6982H132.162V25.6136C132.162 25.9955 132.254 26.2733 132.436 26.4473C132.618 26.617 132.911 26.7018 133.314 26.7018C133.429 26.7018 133.541 26.6848 133.651 26.6509C133.762 26.6127 133.861 26.5533 133.951 26.4727C134.04 26.3921 134.112 26.2882 134.167 26.1609C134.226 26.0294 134.26 25.8682 134.269 25.6773V23.6982H135.662V25.6773C135.671 26.0379 135.779 26.2988 135.987 26.46C136.195 26.6212 136.511 26.7018 136.935 26.7018H137.597V28.0955H136.935C136.502 28.0955 136.121 28.0424 135.79 27.9364C135.463 27.8261 135.187 27.6606 134.962 27.44C134.759 27.6606 134.511 27.8261 134.218 27.9364C133.929 28.0424 133.628 28.0955 133.314 28.0955C132.915 28.0955 132.565 28.0424 132.264 27.9364C131.963 27.8261 131.698 27.6627 131.469 27.4464C131.252 27.65 131.004 27.8091 130.724 27.9236C130.448 28.0339 130.173 28.0912 129.897 28.0955H129.852C129.466 28.0955 129.125 28.0403 128.828 27.93C128.531 27.8155 128.274 27.6627 128.058 27.4718C127.816 27.6797 127.532 27.8367 127.205 27.9427C126.878 28.0445 126.497 28.0955 126.06 28.0955H125.258V26.7018ZM131.049 21.0636L130.031 22.0945L129.012 21.0764L130.031 20.0455L131.049 21.0636ZM133.779 21.0382L132.773 22.0564L131.723 21.0509L132.754 20.02L133.779 21.0382ZM132.372 19.2436L131.418 20.1982L130.476 19.2564L131.431 18.3018L132.372 19.2436ZM142.211 27.0073C142.253 27.0073 142.317 27.003 142.402 26.9945C142.491 26.9818 142.58 26.9352 142.669 26.8545C142.758 26.7697 142.837 26.6339 142.905 26.4473C142.973 26.2564 143.006 25.9806 143.006 25.62C143.006 25.5776 143 25.5097 142.987 25.4164C142.975 25.3188 142.951 25.2148 142.917 25.1045C142.883 24.99 142.837 24.8733 142.777 24.7545C142.718 24.6315 142.642 24.5212 142.548 24.4236C142.455 24.3218 142.34 24.2391 142.205 24.1755C142.069 24.1118 141.91 24.08 141.727 24.08C141.558 24.08 141.411 24.1161 141.288 24.1882C141.165 24.2561 141.057 24.3494 140.964 24.4682C140.87 24.5827 140.79 24.7164 140.722 24.8691C140.658 25.0176 140.599 25.1724 140.544 25.3336C140.493 25.4948 140.444 25.6561 140.397 25.8173C140.355 25.9785 140.31 26.127 140.264 26.2627C140.429 26.3561 140.601 26.4473 140.779 26.5364C140.957 26.6255 141.131 26.7061 141.301 26.7782C141.475 26.8461 141.638 26.9012 141.791 26.9436C141.948 26.9861 142.088 27.0073 142.211 27.0073ZM141.727 22.6927C142.16 22.6927 142.536 22.7733 142.854 22.9345C143.172 23.0915 143.437 23.3058 143.649 23.5773C143.861 23.8445 144.018 24.1564 144.12 24.5127C144.226 24.8648 144.279 25.2339 144.279 25.62C144.279 26.0485 144.241 26.4155 144.165 26.7209C144.093 27.0221 143.997 27.2767 143.878 27.4845C143.759 27.6882 143.624 27.8515 143.471 27.9745C143.323 28.0933 143.172 28.1845 143.019 28.2482C142.866 28.3118 142.718 28.3521 142.574 28.3691C142.434 28.3903 142.313 28.4009 142.211 28.4009C142.003 28.4009 141.804 28.3797 141.613 28.3373C141.422 28.2991 141.227 28.2397 141.027 28.1591C140.832 28.0827 140.626 27.9894 140.41 27.8791C140.194 27.7688 139.956 27.6436 139.697 27.5036C139.515 27.7073 139.313 27.8579 139.093 27.9555C138.872 28.0488 138.637 28.0955 138.386 28.0955H137.406L137.394 26.7018H138.336C138.446 26.7018 138.541 26.6679 138.622 26.6C138.703 26.5279 138.775 26.4324 138.838 26.3136C138.902 26.1948 138.959 26.0548 139.01 25.8936C139.065 25.7324 139.118 25.5585 139.169 25.3718C139.224 25.1724 139.286 24.9688 139.354 24.7609C139.422 24.553 139.502 24.3494 139.596 24.15C139.689 23.9506 139.799 23.7639 139.926 23.59C140.054 23.4118 140.202 23.257 140.372 23.1255C140.542 22.9897 140.737 22.8836 140.957 22.8073C141.182 22.7309 141.439 22.6927 141.727 22.6927ZM163.127 26.7018V28.0955H162.656C162.503 28.0955 162.346 28.0827 162.185 28.0573C162.024 28.0318 161.865 27.9936 161.708 27.9427C161.555 27.8918 161.409 27.8282 161.269 27.7518C161.129 27.6712 161.002 27.5736 160.887 27.4591C160.425 27.8791 159.773 28.0912 158.933 28.0955H152.124C151.815 28.0955 151.522 28.0424 151.246 27.9364C150.97 27.8303 150.724 27.6776 150.508 27.4782C150.423 27.3976 150.334 27.3 150.241 27.1855C150.152 27.0709 150.071 26.9373 149.999 26.7845C149.927 26.6276 149.867 26.4515 149.821 26.2564C149.774 26.057 149.751 25.8342 149.751 25.5882C149.751 25.3718 149.772 25.1364 149.814 24.8818C149.861 24.623 149.91 24.3791 149.961 24.15C150.016 23.9167 150.069 23.7173 150.12 23.5518C150.171 23.3821 150.202 23.2782 150.215 23.24L150.877 23.45L151.545 23.66C151.516 23.7491 151.477 23.8742 151.431 24.0355C151.388 24.1924 151.346 24.3642 151.303 24.5509C151.261 24.7333 151.223 24.9179 151.189 25.1045C151.159 25.2912 151.144 25.4524 151.144 25.5882C151.144 25.847 151.185 26.0506 151.265 26.1991C151.35 26.3476 151.446 26.46 151.552 26.5364C151.662 26.6085 151.772 26.6552 151.882 26.6764C151.993 26.6933 152.078 26.7018 152.137 26.7018H158.889C159.211 26.7018 159.459 26.6679 159.633 26.6C159.812 26.5321 159.941 26.4515 160.022 26.3582C160.102 26.2606 160.149 26.1609 160.162 26.0591C160.174 25.9573 160.181 25.8724 160.181 25.8045V23.6918H161.574V25.7727C161.574 25.9891 161.619 26.1588 161.708 26.2818C161.797 26.4048 161.901 26.4982 162.02 26.5618C162.139 26.6212 162.257 26.6594 162.376 26.6764C162.499 26.6933 162.592 26.7018 162.656 26.7018H163.127ZM157.113 23.1191L156.108 22.1009L157.101 21.07L158.132 22.1009L157.113 23.1191ZM154.555 23.1064L153.55 22.0882L154.536 21.0573L155.567 22.0882L154.555 23.1064ZM167.819 28.0827C167.425 28.0827 167.072 28.0297 166.763 27.9236C166.457 27.8133 166.194 27.6521 165.974 27.44C165.745 27.6606 165.484 27.8261 165.191 27.9364C164.902 28.0424 164.612 28.0955 164.319 28.0955H162.913V26.7018H164.319C164.374 26.7018 164.455 26.6933 164.561 26.6764C164.671 26.6552 164.779 26.6085 164.885 26.5364C164.992 26.4642 165.083 26.3582 165.159 26.2182C165.24 26.0739 165.28 25.8767 165.28 25.6264V23.6982H166.674V25.6009C166.674 25.9827 166.763 26.2606 166.941 26.4345C167.119 26.6085 167.412 26.6955 167.819 26.6955C167.874 26.6955 167.955 26.6848 168.061 26.6636C168.171 26.6424 168.279 26.5958 168.385 26.5236C168.492 26.4473 168.583 26.337 168.659 26.1927C168.74 26.0485 168.78 25.8512 168.78 25.6009V23.6982H170.167V25.6009C170.167 25.9827 170.259 26.2627 170.441 26.4409C170.623 26.6191 170.92 26.7082 171.332 26.7082C171.395 26.7082 171.48 26.6955 171.586 26.67C171.692 26.6445 171.796 26.5936 171.898 26.5173C172 26.4409 172.089 26.3306 172.165 26.1864C172.242 26.0379 172.28 25.8427 172.28 25.6009C172.28 25.5076 172.272 25.393 172.255 25.2573C172.238 25.1173 172.216 24.9688 172.191 24.8118C172.165 24.6548 172.136 24.4958 172.102 24.3345C172.072 24.1691 172.04 24.0142 172.006 23.87C171.977 23.7215 171.947 23.59 171.917 23.4755C171.888 23.3609 171.864 23.2739 171.847 23.2145L173.165 22.7945C173.173 22.82 173.19 22.8879 173.215 22.9982C173.245 23.1085 173.277 23.2442 173.311 23.4055C173.349 23.5667 173.387 23.7448 173.425 23.94C173.468 24.1352 173.506 24.3324 173.54 24.5318C173.574 24.7312 173.602 24.9242 173.623 25.1109C173.644 25.2976 173.655 25.4609 173.655 25.6009C173.655 26.0209 173.585 26.3858 173.445 26.6955C173.309 27.0052 173.131 27.2639 172.91 27.4718C172.694 27.6797 172.445 27.8345 172.165 27.9364C171.89 28.0382 171.612 28.0912 171.332 28.0955C170.937 28.0955 170.583 28.0382 170.269 27.9236C169.955 27.8091 169.686 27.6458 169.461 27.4336C169.232 27.6542 168.973 27.8176 168.685 27.9236C168.4 28.0297 168.112 28.0827 167.819 28.0827ZM176.772 28.0955H175.378V18.9191H176.772V28.0955ZM179.301 30.1191C179.958 30.1191 180.497 30.0724 180.917 29.9791C181.337 29.8858 181.668 29.7394 181.91 29.54C182.007 29.4594 182.092 29.3724 182.164 29.2791C182.241 29.19 182.302 29.0861 182.349 28.9673C182.4 28.8527 182.438 28.7233 182.463 28.5791C182.493 28.4391 182.51 28.2779 182.514 28.0955H181.439C181.129 28.0955 180.815 28.053 180.497 27.9682C180.183 27.8791 179.897 27.7327 179.638 27.5291C179.383 27.3255 179.173 27.0561 179.008 26.7209C178.847 26.3858 178.766 25.9721 178.766 25.48C178.766 25.1915 178.789 24.9327 178.836 24.7036C178.887 24.4745 178.951 24.2709 179.027 24.0927C179.103 23.9103 179.188 23.7533 179.282 23.6218C179.375 23.4903 179.466 23.3758 179.555 23.2782C179.797 23.0364 180.073 22.8497 180.382 22.7182C180.696 22.5824 181.034 22.5145 181.394 22.5145C181.708 22.5145 182.001 22.5633 182.272 22.6609C182.548 22.7585 182.794 22.9048 183.011 23.1C183.303 23.3758 183.524 23.7236 183.672 24.1436C183.825 24.5636 183.902 25.0664 183.902 25.6518V26.7018H185.066V28.0955H183.902C183.893 28.6809 183.796 29.1752 183.609 29.5782C183.426 29.9812 183.151 30.3312 182.782 30.6282C182.591 30.7767 182.381 30.9061 182.152 31.0164C181.922 31.1309 181.666 31.2242 181.382 31.2964C181.097 31.3685 180.783 31.4215 180.44 31.4555C180.1 31.4936 179.721 31.5127 179.301 31.5127V30.1191ZM181.394 23.9082C181.004 23.9082 180.701 24.0439 180.484 24.3155C180.268 24.5827 180.16 24.9709 180.16 25.48C180.16 25.7345 180.198 25.9403 180.274 26.0973C180.351 26.2542 180.463 26.3815 180.612 26.4791C180.684 26.5258 180.76 26.5639 180.841 26.5936C180.926 26.6191 181.006 26.6403 181.082 26.6573C181.159 26.6742 181.227 26.687 181.286 26.6955C181.35 26.6997 181.401 26.7018 181.439 26.7018H182.514V25.6518C182.514 25.3548 182.493 25.1067 182.451 24.9073C182.408 24.7036 182.353 24.5382 182.285 24.4109C182.217 24.2836 182.141 24.1861 182.056 24.1182C181.976 24.0461 181.893 23.9952 181.808 23.9655C181.727 23.9358 181.649 23.9188 181.572 23.9145C181.5 23.9103 181.441 23.9082 181.394 23.9082ZM193.552 25.5882C193.527 25.6052 193.415 25.6794 193.215 25.8109C193.016 25.9382 192.751 26.0952 192.42 26.2818C192.089 26.4685 191.703 26.6679 191.261 26.88C190.82 27.0921 190.347 27.2894 189.842 27.4718C189.338 27.65 188.809 27.7985 188.258 27.9173C187.711 28.0361 187.163 28.0955 186.616 28.0955H184.783V26.7018H186.616C186.913 26.7018 187.221 26.6806 187.539 26.6382C187.857 26.5958 188.173 26.5385 188.487 26.4664C188.805 26.39 189.119 26.303 189.429 26.2055C189.738 26.1079 190.035 26.0039 190.32 25.8936C190.608 25.7833 190.878 25.6709 191.128 25.5564C191.378 25.4376 191.603 25.3209 191.802 25.2064L188.627 24.0927C188.436 24.0376 188.266 24.01 188.118 24.01C187.969 24.0058 187.838 24.0312 187.723 24.0864C187.609 24.1415 187.509 24.2285 187.424 24.3473C187.339 24.4661 187.263 24.6167 187.195 24.7991L185.91 24.4109C185.999 24.1267 186.12 23.8552 186.272 23.5964C186.425 23.3376 186.614 23.1212 186.839 22.9473C187.064 22.7691 187.327 22.6503 187.628 22.5909C187.721 22.5739 187.819 22.5655 187.921 22.5655C188.145 22.5655 188.391 22.6079 188.659 22.6927C188.896 22.7691 189.111 22.8412 189.301 22.9091C189.497 22.9727 189.688 23.0406 189.874 23.1127C190.061 23.1806 190.256 23.2548 190.46 23.3355C190.668 23.4118 190.905 23.5009 191.172 23.6027C191.444 23.7045 191.758 23.8233 192.114 23.9591C192.471 24.0906 192.893 24.2433 193.381 24.4173L193.552 25.5882ZM186.661 19.9755L187.717 18.9064L188.799 19.9882L187.73 21.0573L186.661 19.9755ZM197.485 27.7964C197.459 28.3648 197.353 28.8782 197.166 29.3364C196.984 29.7945 196.727 30.1848 196.396 30.5073C196.07 30.8297 195.675 31.0779 195.213 31.2518C194.75 31.4258 194.226 31.5127 193.641 31.5127H192.763V30.1191H193.641C194.065 30.1191 194.43 30.0745 194.735 29.9855C195.045 29.8964 195.3 29.7542 195.499 29.5591C195.698 29.3682 195.847 29.1158 195.945 28.8018C196.042 28.4921 196.091 28.1145 196.091 27.6691V23.6982H197.485V27.7964ZM201.445 28.1527C201.186 28.1527 200.934 28.14 200.688 28.1145C200.565 28.1018 200.431 28.0848 200.287 28.0636C200.143 28.0424 199.994 28.0127 199.841 27.9745C199.693 27.9364 199.542 27.8897 199.39 27.8345C199.241 27.7752 199.099 27.7073 198.963 27.6309L198.359 27.2873L199.052 26.0782L199.657 26.4218C199.801 26.5067 199.977 26.5745 200.185 26.6255C200.397 26.6764 200.622 26.7124 200.86 26.7336C201.055 26.7506 201.252 26.7591 201.451 26.7591C201.494 26.7591 201.585 26.7591 201.725 26.7591C201.865 26.7548 202.037 26.7379 202.24 26.7082C202.512 26.6658 202.714 26.6127 202.845 26.5491C202.981 26.4812 203.059 26.4176 203.08 26.3582C203.093 26.3327 203.1 26.3009 203.1 26.2627C203.1 26.2076 203.085 26.1248 203.055 26.0145C203.025 25.9042 202.934 25.7345 202.781 25.5055C202.374 24.8903 202.043 24.3918 201.789 24.01C201.534 23.6239 201.335 23.3227 201.19 23.1064C201.046 22.89 200.949 22.7415 200.898 22.6609C200.847 22.5803 200.819 22.5379 200.815 22.5336L200.433 21.9482L201.598 21.1845L201.98 21.77L202.062 21.8909C202.113 21.9715 202.211 22.12 202.355 22.3364C202.499 22.5527 202.699 22.8539 202.953 23.24C203.208 23.6261 203.539 24.1245 203.946 24.7355C204.188 25.1003 204.351 25.4524 204.436 25.7918C204.474 25.953 204.493 26.11 204.493 26.2627C204.493 26.4961 204.447 26.7167 204.353 26.9245C204.205 27.2639 203.952 27.5312 203.596 27.7264C203.286 27.9003 202.902 28.0191 202.444 28.0827C202.283 28.1082 202.12 28.1252 201.954 28.1336C201.789 28.1464 201.619 28.1527 201.445 28.1527Z" fill="#2C8EE8"/>
</svg>
