<svg width="32" height="33" viewBox="0 0 32 33" fill="none" xmlns="http://www.w3.org/2000/svg">
<path d="M11.2451 27.9213C13.0251 27.9213 14.6998 27.228 15.9584 25.9693L25.4704 16.4587C26.7183 15.2068 27.4189 13.5113 27.4186 11.7437C27.4184 9.97618 26.7173 8.28084 25.4691 7.02934C24.8512 6.40872 24.1163 5.91678 23.3071 5.58195C22.4978 5.24713 21.6302 5.07607 20.7544 5.07867C18.9744 5.07867 17.3011 5.77201 16.0424 7.03067L6.53043 16.5413C5.28289 17.7932 4.58228 19.4884 4.58203 21.2557C4.58178 23.0231 5.28191 24.7185 6.5291 25.9707C7.14728 26.5913 7.88235 27.0833 8.69183 27.4181C9.5013 27.7529 10.3691 27.924 11.2451 27.9213ZM17.9264 8.91601C18.2968 8.5437 18.7373 8.24854 19.2225 8.04759C19.7077 7.84665 20.2279 7.74392 20.7531 7.74534C21.8224 7.74534 22.8278 8.16134 23.5824 8.91601C24.3316 9.66669 24.7525 10.6838 24.7527 11.7444C24.753 12.8049 24.3326 13.8223 23.5838 14.5733L19.7264 18.4293L14.0704 12.7707L17.9264 8.91601Z" fill="#2C8EE8"/>
</svg>
