<svg width="18" height="17" viewBox="0 0 18 17" fill="none" xmlns="http://www.w3.org/2000/svg">
<path d="M2.00226 4.3397C2.00226 3.55918 2.00095 2.9114 2.00226 2.26407C2.00534 0.958056 2.92197 0.0111581 4.18442 0.00888514C4.36546 0.00888514 4.54826 -0.00157026 4.7271 0.0211589C5.10149 0.0693448 5.36997 0.408464 5.34317 0.776222C5.31461 1.16944 5.02151 1.45719 4.63746 1.46446C4.46169 1.46764 4.28593 1.46219 4.1106 1.46583C3.71468 1.47401 3.4128 1.78222 3.41192 2.1927C3.40885 3.44781 3.39786 4.70337 3.41544 5.95802C3.44048 7.7559 4.87958 9.31421 6.61089 9.44468C8.46173 9.58469 10.0177 8.36277 10.3802 6.48443C10.4268 6.24395 10.436 6.0003 10.4356 5.75573C10.4356 4.597 10.4356 3.43872 10.4352 2.27998C10.4352 1.74721 10.1588 1.46537 9.64025 1.46492C9.49744 1.46492 9.35463 1.46719 9.21226 1.46446C8.83304 1.45719 8.53204 1.16807 8.51094 0.794406C8.48853 0.393463 8.73285 0.057071 9.11998 0.0234318C9.70265 -0.027027 10.2866 -0.0229357 10.8087 0.315729C11.4652 0.741674 11.8299 1.35673 11.8391 2.16088C11.8536 3.42735 11.8536 4.69382 11.8391 5.96029C11.8119 8.35004 10.0423 10.462 7.76393 10.838C7.65452 10.8562 7.6242 10.8943 7.62507 11.0094C7.64133 12.6695 8.88577 14.1964 10.4637 14.4846C12.4253 14.8433 14.1742 13.6196 14.5912 11.5967C14.6887 11.1244 15.0016 10.8616 15.3905 10.9257C15.8044 10.9939 16.0558 11.3571 15.9894 11.7894C15.6616 13.9232 13.9092 15.6752 11.8228 15.9548C9.32914 16.2893 7.0613 14.7397 6.38987 12.2408C6.28045 11.8344 6.22816 11.418 6.22377 10.9971C6.22245 10.8853 6.18114 10.8552 6.08447 10.8384C4.0003 10.4848 2.3248 8.6937 2.05412 6.53716C1.957 5.76164 2.02511 4.98294 2.00182 4.33879L2.00226 4.3397Z" fill="#909090"/>
<path d="M12.75 7.43979C12.748 6.45473 13.5822 5.66564 14.625 5.66675C15.6577 5.66786 16.4957 6.4562 16.5 7.43057C16.5043 8.40271 15.6498 9.21099 14.6203 9.20841C13.5892 9.20582 12.7523 8.41416 12.75 7.43979Z" fill="#909090"/>
</svg>
