<svg width="25" height="24" viewBox="0 0 25 24" fill="none" xmlns="http://www.w3.org/2000/svg">
<path d="M22.5 18.6049C22.5 18.8038 22.421 18.9946 22.2803 19.1353C22.1397 19.2759 21.9489 19.3549 21.75 19.3549H16.65C16.483 19.9778 16.1151 20.5282 15.6034 20.9207C15.0918 21.3132 14.4649 21.526 13.82 21.526C13.1751 21.526 12.5482 21.3132 12.0366 20.9207C11.5249 20.5282 11.157 19.9778 10.99 19.3549H3.25C3.05109 19.3549 2.86032 19.2759 2.71967 19.1353C2.57902 18.9946 2.5 18.8038 2.5 18.6049C2.5 18.406 2.57902 18.2153 2.71967 18.0746C2.86032 17.9339 3.05109 17.8549 3.25 17.8549H10.99C11.157 17.2321 11.5249 16.6817 12.0366 16.2892C12.5482 15.8966 13.1751 15.6839 13.82 15.6839C14.4649 15.6839 15.0918 15.8966 15.6034 16.2892C16.1151 16.6817 16.483 17.2321 16.65 17.8549H21.75C21.9489 17.8549 22.1397 17.9339 22.2803 18.0746C22.421 18.2153 22.5 18.406 22.5 18.6049ZM22.5 5.39493C22.5 5.59384 22.421 5.78461 22.2803 5.92526C22.1397 6.06591 21.9489 6.14493 21.75 6.14493H19.3C19.133 6.76781 18.7651 7.31817 18.2534 7.7107C17.7418 8.10323 17.1149 8.31598 16.47 8.31598C15.8251 8.31598 15.1982 8.10323 14.6866 7.7107C14.1749 7.31817 13.807 6.76781 13.64 6.14493H3.25C3.15151 6.14493 3.05398 6.12553 2.96299 6.08784C2.87199 6.05015 2.78931 5.9949 2.71967 5.92526C2.65003 5.85562 2.59478 5.77294 2.55709 5.68194C2.5194 5.59095 2.5 5.49342 2.5 5.39493C2.5 5.29644 2.5194 5.19891 2.55709 5.10792C2.59478 5.01692 2.65003 4.93424 2.71967 4.8646C2.78931 4.79496 2.87199 4.73971 2.96299 4.70202C3.05398 4.66433 3.15151 4.64493 3.25 4.64493H13.64C13.807 4.02205 14.1749 3.47169 14.6866 3.07916C15.1982 2.68663 15.8251 2.47388 16.47 2.47388C17.1149 2.47388 17.7418 2.68663 18.2534 3.07916C18.7651 3.47169 19.133 4.02205 19.3 4.64493H21.75C21.8489 4.64359 21.947 4.66207 22.0386 4.69928C22.1302 4.7365 22.2134 4.79169 22.2833 4.8616C22.3532 4.93152 22.4084 5.01473 22.4457 5.10633C22.4829 5.19794 22.5013 5.29607 22.5 5.39493ZM22.5 11.9949C22.5013 12.0938 22.4829 12.1919 22.4457 12.2835C22.4084 12.3751 22.3532 12.4583 22.2833 12.5283C22.2134 12.5982 22.1302 12.6534 22.0386 12.6906C21.947 12.7278 21.8489 12.7463 21.75 12.7449H10.05C9.88296 13.3678 9.51509 13.9182 9.00342 14.3107C8.49176 14.7032 7.86489 14.916 7.22 14.916C6.57511 14.916 5.94824 14.7032 5.43658 14.3107C4.92491 13.9182 4.55704 13.3678 4.39 12.7449H3.25C3.05109 12.7449 2.86032 12.6659 2.71967 12.5253C2.57902 12.3846 2.5 12.1938 2.5 11.9949C2.5 11.796 2.57902 11.6053 2.71967 11.4646C2.86032 11.3239 3.05109 11.2449 3.25 11.2449H4.39C4.55704 10.6221 4.92491 10.0717 5.43658 9.67916C5.94824 9.28663 6.57511 9.07388 7.22 9.07388C7.86489 9.07388 8.49176 9.28663 9.00342 9.67916C9.51509 10.0717 9.88296 10.6221 10.05 11.2449H21.75C21.9489 11.2449 22.1397 11.3239 22.2803 11.4646C22.421 11.6053 22.5 11.796 22.5 11.9949Z" fill="#2C8EE8"/>
</svg>
