<svg width="24" height="24" viewBox="0 0 24 24" fill="none" xmlns="http://www.w3.org/2000/svg">
<path d="M0 9.375H24V14.625H0V9.375Z" fill="#E6E7E8"/>
<path d="M20.25 3.75H3.75C1.26488 3.75 0 5.59688 0 7.875V9.375H24V7.875C24 5.59688 22.7351 3.75 20.25 3.75Z" fill="#29B473"/>
<path d="M0 16.125C0 18.4031 1.26488 20.25 3.75 20.25H20.25C22.7351 20.25 24 18.4031 24 16.125V14.625H0V16.125Z" fill="#EC1C24"/>
<path fill-rule="evenodd" clip-rule="evenodd" d="M11.0398 10.1999C11.0349 10.2037 11.0315 10.2067 11.0289 10.2074C10.7769 10.3499 10.58 10.5479 10.4218 10.7879C10.2557 11.044 10.1411 11.3299 10.0843 11.6298C10.0447 11.8344 10.0289 12.0429 10.0374 12.2512C10.055 12.6532 10.154 13.0323 10.3543 13.3837C10.4084 13.4802 10.4707 13.5718 10.5407 13.6574C10.4627 13.6405 10.1563 13.3799 10.031 13.2258C9.74471 12.8752 9.59393 12.4333 9.60616 11.9808C9.63203 11.0665 10.2838 10.375 11.0398 10.1995M11.4204 9.6438C11.4399 9.78592 11.5397 9.89917 11.6709 9.9273C11.7977 9.95505 11.9345 9.89917 12.0099 9.76042C12.0875 9.88905 12.197 9.95767 12.3474 9.92655C12.4955 9.89617 12.5717 9.7908 12.6047 9.64755C12.6065 9.6678 12.6114 9.68692 12.6122 9.70605C12.6182 9.82642 12.5893 9.93555 12.5132 10.0304C12.4468 10.1118 12.3624 10.1587 12.2552 10.156C12.2124 10.1543 12.1705 10.1437 12.132 10.1251C12.0935 10.1064 12.0592 10.0801 12.0313 10.0477L12.0114 10.0263C11.9885 10.0477 11.9675 10.0713 11.9435 10.0897C11.8048 10.198 11.6158 10.1718 11.5059 10.0282C11.42 9.91717 11.3945 9.79042 11.4148 9.65392C11.4148 9.65167 11.4167 9.64905 11.4167 9.64717C11.418 9.6462 11.4193 9.64507 11.4204 9.6438ZM12.9812 10.1999C12.9868 10.2037 12.9902 10.2067 12.9928 10.2074C13.2448 10.3499 13.4417 10.5479 13.5999 10.7879C13.7687 11.0459 13.877 11.3275 13.9367 11.6298C13.9768 11.8345 13.9925 12.0419 13.9835 12.2512C13.9667 12.6532 13.8677 13.0323 13.6678 13.3837C13.6161 13.475 13.5571 13.5619 13.4912 13.6435C13.4882 13.6473 13.4837 13.6525 13.481 13.6574C13.5594 13.6405 13.8658 13.3799 13.9907 13.2258C14.1328 13.0503 14.2412 12.8572 14.3147 12.643C14.387 12.43 14.4212 12.2058 14.4155 11.9808C14.3904 11.0665 13.7379 10.375 12.9812 10.1995" fill="#C32129"/>
<path fill-rule="evenodd" clip-rule="evenodd" d="M13.5035 12.5778C13.6338 12.1312 13.6185 11.6546 13.4596 11.2173C13.3272 10.8389 13.0908 10.5056 12.7775 10.2554L12.785 10.2682C12.9784 10.5499 13.1077 10.8705 13.1638 11.2076C13.1938 11.3879 13.205 11.5709 13.1938 11.7536C13.163 12.2834 12.9901 12.7601 12.6613 13.1786C12.5495 13.3207 12.4209 13.4486 12.2784 13.5607C12.2735 13.5633 12.2694 13.5671 12.2619 13.5727C12.2821 12.4976 12.3013 11.4266 12.3215 10.3556C12.1891 10.3177 12.0931 10.2326 12.0084 10.1279C11.9229 10.2326 11.8276 10.3181 11.6953 10.3556C11.7155 11.4266 11.7346 12.4976 11.7549 13.5727C11.7474 13.5667 11.7433 13.5633 11.7384 13.5607C11.596 13.4491 11.4674 13.3208 11.3555 13.1786C11.0266 12.7601 10.8541 12.2834 10.8219 11.7536C10.811 11.5709 10.8219 11.3879 10.853 11.2076C10.9088 10.8704 11.0381 10.5497 11.2318 10.2682L11.2396 10.2554C10.9261 10.5054 10.6895 10.8388 10.5571 11.2173C10.3985 11.6547 10.3831 12.1311 10.5133 12.5778C10.6869 13.1767 11.0529 13.6229 11.6023 13.9192C11.4148 13.9826 11.0806 14.0497 10.694 13.9893C10.697 13.9901 10.6996 13.9919 10.7019 13.9931C10.8984 14.0737 11.1031 14.1217 11.3158 14.1382C11.4658 14.1498 11.6169 14.1457 11.7661 14.1236C11.78 14.1217 11.7868 14.1254 11.7939 14.1363C11.8618 14.2447 11.9304 14.3519 11.9983 14.4603C12.002 14.4648 12.005 14.4693 12.0084 14.4749L12.0185 14.4603C12.0864 14.3519 12.1554 14.2447 12.2233 14.1363C12.2308 14.1254 12.2368 14.1217 12.2506 14.1236C12.3999 14.1457 12.551 14.1498 12.7014 14.1382C12.9122 14.1221 13.1192 14.0732 13.3149 13.9931L13.3224 13.9893C13.0187 14.0371 12.708 14.013 12.4153 13.9192C12.9643 13.6229 13.3318 13.1767 13.5043 12.5778" fill="#C32129"/>
</svg>
