<svg width="16" height="16" viewBox="0 0 16 16" fill="none" xmlns="http://www.w3.org/2000/svg">
<path d="M9.24402 7.0225L8.17102 6.0385C7.87738 5.76911 7.67091 5.41815 7.57808 5.03063C7.48526 4.64311 7.51031 4.23669 7.65002 3.8635L8.10852 2.6395C8.27943 2.18265 8.61823 1.80825 9.05578 1.59268C9.49333 1.37711 9.99665 1.33663 10.463 1.4795C12.179 2.0045 13.498 3.5995 13.092 5.494C12.825 6.74 12.3145 8.304 11.346 9.9685C10.5345 11.3704 9.51358 12.64 8.31852 13.7335C6.88352 15.0395 4.83352 14.713 3.51452 13.4835C3.16117 13.1537 2.94678 12.7017 2.91501 12.2194C2.88324 11.7371 3.03648 11.2608 3.34352 10.8875L4.18402 9.8665C4.43734 9.55861 4.7769 9.33346 5.1591 9.21996C5.54131 9.10645 5.94872 9.10978 6.32902 9.2295L7.71702 9.667C7.77069 9.612 7.83169 9.54666 7.90002 9.471C8.18548 9.15538 8.43796 8.81142 8.65352 8.4445C8.86344 8.07428 9.035 7.68358 9.16552 7.2785C9.19344 7.19371 9.21962 7.10836 9.24402 7.0225Z" fill="white"/>
</svg>
