<svg width="32" height="33" viewBox="0 0 32 33" fill="none" xmlns="http://www.w3.org/2000/svg">
<path d="M3.44104 25.8467L3.41438 25.8733C3.05437 25.0867 2.82771 24.1933 2.73438 23.2067C2.82771 24.18 3.08104 25.06 3.44104 25.8467Z" fill="#2C8EE8"/>
<path d="M12.0015 14.34C13.754 14.34 15.1748 12.9193 15.1748 11.1667C15.1748 9.4141 13.754 7.99335 12.0015 7.99335C10.2489 7.99335 8.82812 9.4141 8.82812 11.1667C8.82812 12.9193 10.2489 14.34 12.0015 14.34Z" fill="#2C8EE8"/>
<path d="M21.028 4.5H10.972C6.604 4.5 4 7.104 4 11.472V21.528C4 22.836 4.228 23.976 4.672 24.936C5.704 27.216 7.912 28.5 10.972 28.5H21.028C25.396 28.5 28 25.896 28 21.528V18.78V11.472C28 7.104 25.396 4.5 21.028 4.5ZM26.2 17.232C25.656 15.132 22.5 14.5 21.5 15.5L17.46 19.284C16.524 20.088 15.012 20.088 14.076 19.284L13.668 18.948C12.816 18.204 11.46 18.132 10.5 18.78L6.22 23.892C5.956 23.22 5.8 22.44 5.8 21.528V11.472C5.8 8.088 7.588 6.3 10.972 6.3H21.028C24.412 6.3 26.2 8.088 26.2 11.472V17.232Z" fill="#2C8EE8"/>
</svg>
