<svg width="24" height="25" viewBox="0 0 24 25" fill="none" xmlns="http://www.w3.org/2000/svg">
<path fill-rule="evenodd" clip-rule="evenodd" d="M18.5 12.23C18.5 12.4288 18.421 12.6196 18.2803 12.7602C18.1397 12.9008 17.9489 12.9798 17.75 12.9798H7.55947L10.2796 15.699C10.4121 15.8412 10.4842 16.0292 10.4808 16.2234C10.4774 16.4177 10.3986 16.603 10.2612 16.7404C10.1238 16.8778 9.93841 16.9564 9.74409 16.9599C9.54978 16.9633 9.36173 16.8912 9.21955 16.7588L5.21935 12.7598C5.07889 12.6193 5 12.4287 5 12.23C5 12.0313 5.07889 11.8407 5.21935 11.7001L9.21955 7.70123C9.36173 7.56879 9.54978 7.49668 9.74409 7.50011C9.93841 7.50354 10.1238 7.58223 10.2612 7.7196C10.3986 7.85698 10.4774 8.04231 10.4808 8.23656C10.4842 8.43081 10.4121 8.6188 10.2796 8.76094L7.55947 11.4802H17.75C17.9489 11.4802 18.1397 11.5592 18.2803 11.6998C18.421 11.8404 18.5 12.0311 18.5 12.23Z" fill="#2C8EE8"/>
</svg>
