<svg width="48" height="48" viewBox="0 0 48 48" fill="none" xmlns="http://www.w3.org/2000/svg">
<circle cx="23.9961" cy="24" r="24" fill="#E9F7FF"/>
<path d="M31.9961 10.6666H15.9961C13.7828 10.6666 11.9961 12.44 11.9961 14.6266V29.1733C11.9961 31.36 13.7828 33.1333 15.9961 33.1333H17.0094C18.0761 33.1333 19.0894 33.5466 19.8361 34.2933L22.1161 36.5466C23.1561 37.5733 24.8494 37.5733 25.8894 36.5466L28.1694 34.2933C28.9161 33.5466 29.9428 33.1333 30.9961 33.1333H31.9961C34.2094 33.1333 35.9961 31.36 35.9961 29.1733V14.6266C35.9961 12.44 34.2094 10.6666 31.9961 10.6666ZM23.9961 15.6666C25.7161 15.6666 27.1028 17.0533 27.1028 18.7733C27.1028 20.4933 25.7161 21.88 23.9961 21.88C22.2761 21.88 20.8894 20.48 20.8894 18.7733C20.8894 17.0533 22.2761 15.6666 23.9961 15.6666ZM27.5694 28.08H20.4228C19.3428 28.08 18.7161 26.88 19.3161 25.9866C20.2228 24.64 21.9828 23.7333 23.9961 23.7333C26.0094 23.7333 27.7694 24.64 28.6761 25.9866C29.2761 26.88 28.6361 28.08 27.5694 28.08Z" fill="#2C8EE8"/>
</svg>
