<svg width="40" height="40" viewBox="0 0 40 40" fill="none" xmlns="http://www.w3.org/2000/svg">
<path d="M36.6673 28.3367C36.6666 30.616 35.8875 32.8266 34.459 34.6027C33.0306 36.3788 31.0384 37.6139 28.8123 38.1034L27.749 34.9134C28.7227 34.753 29.6487 34.3786 30.4603 33.8172C31.2719 33.2558 31.9488 32.5213 32.4423 31.6667H28.334C27.4499 31.6667 26.6021 31.3155 25.977 30.6904C25.3518 30.0653 25.0007 29.2174 25.0007 28.3334V21.6667C25.0007 20.7827 25.3518 19.9348 25.977 19.3097C26.6021 18.6846 27.4499 18.3334 28.334 18.3334H33.2306C32.8239 15.1115 31.2555 12.1488 28.8197 10.0012C26.3839 7.85351 23.2481 6.6685 20.0007 6.6685C16.7532 6.6685 13.6174 7.85351 11.1816 10.0012C8.74578 12.1488 7.17737 15.1115 6.77065 18.3334H11.6673C12.5514 18.3334 13.3992 18.6846 14.0243 19.3097C14.6495 19.9348 15.0007 20.7827 15.0007 21.6667V28.3334C15.0007 29.2174 14.6495 30.0653 14.0243 30.6904C13.3992 31.3155 12.5514 31.6667 11.6673 31.6667H6.66732C5.78326 31.6667 4.93542 31.3155 4.31029 30.6904C3.68517 30.0653 3.33398 29.2174 3.33398 28.3334V20C3.33398 10.795 10.7957 3.33337 20.0007 3.33337C29.2057 3.33337 36.6673 10.795 36.6673 20V28.3367Z" fill="white"/>
</svg>
