<svg width="16" height="17" viewBox="0 0 16 17" fill="none" xmlns="http://www.w3.org/2000/svg">
<path d="M3.64003 12.8267V10.88C3.64003 10.2334 4.1467 9.65336 4.8667 9.65336C5.51337 9.65336 6.09337 10.16 6.09337 10.88V12.7534C6.09337 14.0534 5.01337 15.1334 3.71337 15.1334C2.41337 15.1334 1.33336 14.0467 1.33336 12.7534V8.6467C1.26003 4.90003 4.22003 1.8667 7.9667 1.8667C11.7134 1.8667 14.6667 4.90003 14.6667 8.57337V12.68C14.6667 13.98 13.5867 15.06 12.2867 15.06C10.9867 15.06 9.9067 13.98 9.9067 12.68V10.8067C9.9067 10.16 10.4134 9.58003 11.1334 9.58003C11.78 9.58003 12.36 10.0867 12.36 10.8067V12.8267" stroke="#909090" stroke-linecap="round" stroke-linejoin="round"/>
</svg>
