<svg width="32" height="33" viewBox="0 0 32 33" fill="none" xmlns="http://www.w3.org/2000/svg">
<path d="M22.668 3.16675H9.33463C5.65464 3.16675 2.66797 6.14008 2.66797 9.80675V17.7801V19.1134C2.66797 22.7801 5.65464 25.7534 9.33463 25.7534H11.3346C11.6946 25.7534 12.1746 25.9934 12.4013 26.2867L14.4013 28.9401C15.2813 30.1134 16.7213 30.1134 17.6013 28.9401L19.6013 26.2867C19.8546 25.9534 20.2546 25.7534 20.668 25.7534H22.668C26.348 25.7534 29.3346 22.7801 29.3346 19.1134V9.80675C29.3346 6.14008 26.348 3.16675 22.668 3.16675ZM17.3346 18.8334H9.33463C8.78797 18.8334 8.33464 18.3801 8.33464 17.8334C8.33464 17.2867 8.78797 16.8334 9.33463 16.8334H17.3346C17.8813 16.8334 18.3346 17.2867 18.3346 17.8334C18.3346 18.3801 17.8813 18.8334 17.3346 18.8334ZM22.668 12.1667H9.33463C8.78797 12.1667 8.33464 11.7134 8.33464 11.1667C8.33464 10.6201 8.78797 10.1667 9.33463 10.1667H22.668C23.2146 10.1667 23.668 10.6201 23.668 11.1667C23.668 11.7134 23.2146 12.1667 22.668 12.1667Z" fill="#2C8EE8"/>
</svg>
