<svg width="32" height="33" viewBox="0 0 32 33" fill="none" xmlns="http://www.w3.org/2000/svg">
<path d="M21.3333 3.16663H10.6667C6 3.16663 4 5.83329 4 9.83329V23.1666C4 27.1666 6 29.8333 10.6667 29.8333H21.3333C26 29.8333 28 27.1666 28 23.1666V9.83329C28 5.83329 26 3.16663 21.3333 3.16663ZM10.6667 16.8333H16C16.5467 16.8333 17 17.2866 17 17.8333C17 18.38 16.5467 18.8333 16 18.8333H10.6667C10.12 18.8333 9.66667 18.38 9.66667 17.8333C9.66667 17.2866 10.12 16.8333 10.6667 16.8333ZM21.3333 24.1666H10.6667C10.12 24.1666 9.66667 23.7133 9.66667 23.1666C9.66667 22.62 10.12 22.1666 10.6667 22.1666H21.3333C21.88 22.1666 22.3333 22.62 22.3333 23.1666C22.3333 23.7133 21.88 24.1666 21.3333 24.1666ZM24.6667 12.8333H22C19.9733 12.8333 18.3333 11.1933 18.3333 9.16663V6.49996C18.3333 5.95329 18.7867 5.49996 19.3333 5.49996C19.88 5.49996 20.3333 5.95329 20.3333 6.49996V9.16663C20.3333 10.0866 21.08 10.8333 22 10.8333H24.6667C25.2133 10.8333 25.6667 11.2866 25.6667 11.8333C25.6667 12.38 25.2133 12.8333 24.6667 12.8333Z" fill="#2C8EE8"/>
</svg>
