<svg width="32" height="33" viewBox="0 0 32 33" fill="none" xmlns="http://www.w3.org/2000/svg">
<path d="M16.904 27.1093C17.2704 27.1945 17.3039 27.6743 16.9471 27.7932L14.8405 28.4866C9.54712 30.1932 6.76046 28.7666 5.04046 23.4732L3.33379 18.2066C1.62712 12.9132 3.04045 10.1132 8.33379 8.40656L9.37112 8.06303C9.77398 7.92961 10.1617 8.332 10.0393 8.73834C9.92722 9.1103 9.82211 9.50638 9.72045 9.92656L8.41379 15.5132C6.94712 21.7932 9.09379 25.2599 15.3738 26.7532L16.904 27.1093Z" fill="#2C8EE8"/>
<path d="M22.8949 4.77993L20.6682 4.25993C16.2149 3.2066 13.5615 4.07326 12.0015 7.29993C11.6015 8.11326 11.2815 9.09993 11.0149 10.2333L9.70821 15.8199C8.40154 21.3933 10.1215 24.1399 15.6815 25.4599L17.9215 25.9933C18.6949 26.1799 19.4149 26.2999 20.0815 26.3533C24.2415 26.7533 26.4549 24.8066 27.5749 19.9933L28.8815 14.4199C30.1882 8.8466 28.4815 6.0866 22.8949 4.77993ZM20.3882 18.2733C20.2682 18.7266 19.8682 19.0199 19.4149 19.0199C19.3349 19.0199 19.2549 19.0066 19.1615 18.9933L15.2815 18.0066C14.7482 17.8733 14.4282 17.3266 14.5615 16.7933C14.6949 16.2599 15.2415 15.9399 15.7749 16.0733L19.6549 17.0599C20.2015 17.1933 20.5215 17.7399 20.3882 18.2733ZM24.2949 13.7666C24.1749 14.2199 23.7749 14.5133 23.3215 14.5133C23.2415 14.5133 23.1615 14.4999 23.0682 14.4866L16.6015 12.8466C16.0682 12.7133 15.7482 12.1666 15.8815 11.6333C16.0149 11.0999 16.5615 10.7799 17.0949 10.9133L23.5615 12.5533C24.1082 12.6733 24.4282 13.2199 24.2949 13.7666Z" fill="#2C8EE8"/>
</svg>
