<svg width="32" height="33" viewBox="0 0 32 33" fill="none" xmlns="http://www.w3.org/2000/svg">
<path d="M14.0146 15.46L11.0813 3.68663C11.0146 3.37996 10.7346 3.16663 10.4146 3.16663C6.13464 3.16663 2.66797 6.63329 2.66797 10.9133V18.5133C2.66797 18.9666 3.10797 19.3 3.54797 19.1666L13.548 16.2733C13.8946 16.18 14.108 15.82 14.0146 15.46Z" fill="#2C8EE8"/>
<path d="M14.828 18.74C14.7346 18.3666 14.348 18.14 13.9746 18.2466L3.1613 21.3933C2.86797 21.4866 2.66797 21.7533 2.66797 22.06V22.0866C2.66797 26.3666 6.13464 29.8333 10.4146 29.8333H16.708C17.148 29.8333 17.4813 29.42 17.3746 28.98L14.828 18.74Z" fill="#2C8EE8"/>
<path d="M21.5877 3.16663H13.9211C13.4811 3.16663 13.1477 3.57996 13.2544 4.01996L19.5744 29.3133C19.6544 29.62 19.9211 29.8333 20.2411 29.8333H21.5744C25.8677 29.8333 29.3344 26.3666 29.3344 22.0866V10.9133C29.3344 6.63329 25.8677 3.16663 21.5877 3.16663Z" fill="#2C8EE8"/>
</svg>
