<svg width="16" height="17" viewBox="0 0 16 17" fill="none" xmlns="http://www.w3.org/2000/svg">
<path d="M13.375 6.50002C13.3757 5.5917 13.1461 4.69802 12.7078 3.90244C12.2695 3.10687 11.6368 2.43534 10.8686 1.95058C10.1005 1.46581 9.22198 1.18362 8.31522 1.13035C7.40846 1.07708 6.50299 1.25447 5.68337 1.64596C4.86374 2.03745 4.1567 2.63026 3.62825 3.36904C3.09981 4.10783 2.76721 4.96848 2.66152 5.87063C2.55582 6.77278 2.68047 7.68701 3.02383 8.52793C3.36719 9.36886 3.91806 10.1091 4.625 10.6794V15.5C4.62507 15.5639 4.64147 15.6268 4.67265 15.6825C4.70382 15.7383 4.74873 15.7852 4.80313 15.8188C4.86217 15.8556 4.9304 15.8751 5 15.875C5.05813 15.8751 5.11547 15.8616 5.1675 15.8356L8 14.4194L10.8331 15.8356C10.8903 15.864 10.9537 15.8774 11.0175 15.8744C11.0813 15.8714 11.1432 15.8522 11.1975 15.8186C11.2517 15.785 11.2965 15.7381 11.3276 15.6824C11.3586 15.6266 11.375 15.5638 11.375 15.5V10.6794C11.9994 10.1764 12.5031 9.53989 12.8492 8.81665C13.1953 8.09341 13.375 7.30181 13.375 6.50002ZM3.375 6.50002C3.375 5.58528 3.64625 4.69108 4.15445 3.93051C4.66266 3.16993 5.38498 2.57713 6.23009 2.22708C7.0752 1.87702 8.00513 1.78543 8.90229 1.96389C9.79946 2.14234 10.6236 2.58283 11.2704 3.22965C11.9172 3.87647 12.3577 4.70056 12.5361 5.59773C12.7146 6.49489 12.623 7.42482 12.2729 8.26993C11.9229 9.11504 11.3301 9.83736 10.5695 10.3456C9.80894 10.8538 8.91474 11.125 8 11.125C6.77383 11.1235 5.59831 10.6358 4.73128 9.76874C3.86424 8.90171 3.37649 7.72619 3.375 6.50002ZM10.625 14.8931L8.16688 13.6644C8.11486 13.6384 8.05751 13.6249 7.99938 13.6249C7.94124 13.6249 7.88389 13.6384 7.83188 13.6644L5.375 14.8931V11.1875C6.1766 11.6379 7.08057 11.8744 8 11.8744C8.91943 11.8744 9.8234 11.6379 10.625 11.1875V14.8931ZM8 9.87502C8.66751 9.87502 9.32003 9.67708 9.87505 9.30623C10.4301 8.93538 10.8626 8.40828 11.1181 7.79157C11.3735 7.17487 11.4404 6.49627 11.3102 5.84159C11.1799 5.1869 10.8585 4.58554 10.3865 4.11353C9.91448 3.64153 9.31312 3.32009 8.65843 3.18987C8.00374 3.05964 7.32514 3.12648 6.70844 3.38193C6.09174 3.63737 5.56464 4.06995 5.19379 4.62497C4.82294 5.17999 4.625 5.83251 4.625 6.50002C4.62599 7.39482 4.98189 8.25269 5.61461 8.88541C6.24733 9.51813 7.1052 9.87403 8 9.87502ZM8 3.87502C8.51918 3.87502 9.02669 4.02897 9.45837 4.31741C9.89005 4.60585 10.2265 5.01582 10.4252 5.49547C10.6239 5.97513 10.6758 6.50293 10.5746 7.01213C10.4733 7.52133 10.2233 7.98906 9.85616 8.35617C9.48904 8.72329 9.02131 8.97329 8.51211 9.07458C8.00291 9.17587 7.47511 9.12388 6.99546 8.9252C6.5158 8.72652 6.10583 8.39007 5.81739 7.95839C5.52895 7.52671 5.375 7.01919 5.375 6.50002C5.375 5.80383 5.65156 5.13615 6.14384 4.64386C6.63613 4.15158 7.30381 3.87502 8 3.87502Z" fill="#FC8210"/>
</svg>
