<svg width="68" height="68" viewBox="0 0 68 68" fill="none" xmlns="http://www.w3.org/2000/svg">
<path d="M43.7022 68C35.2144 67.7408 27.7632 64.89 21.4135 59.253C15.161 53.7132 11.3706 46.748 10.0748 38.4869C9.71842 36.1868 9.45925 33.8866 9.848 31.5541C10.4635 27.6989 14.2215 23.9733 19.3401 24.2325C23.3897 24.4593 27.0829 27.8609 27.6336 32.0724C28.152 35.9924 26.111 39.6856 22.4502 41.4026C21.5431 41.8237 21.5107 41.8561 21.9319 42.7956C24.5884 48.8861 28.9619 53.2273 35.0848 55.8514C35.7651 56.1429 35.9919 55.9486 36.2511 55.3654C37.9033 51.6398 41.6936 49.5017 45.646 50.0524C49.6308 50.6032 52.8056 53.778 53.3887 57.7952C54.1339 63.0758 49.9223 67.9676 44.6093 68C44.3178 68 43.9938 68 43.7022 68Z" fill="#2C8EE8"/>
<path d="M68.0006 20.7013C68.0006 32.1372 58.7677 41.3054 47.3317 41.3378C35.9606 41.4026 26.5657 31.878 26.6629 20.6041C26.76 9.16818 35.9282 0 47.3965 0C58.8325 0 68.0006 9.23297 68.0006 20.7013ZM65.4737 20.7013C65.3441 10.7232 57.6014 2.62411 47.3965 2.59171C37.3861 2.52692 29.2546 10.464 29.2222 20.6689C29.2222 30.6794 37.0945 38.7461 47.267 38.8109C57.3098 38.8433 65.2793 30.9385 65.4737 20.7337V20.7013Z" fill="#2C8EE8"/>
<path d="M31.2632 67.9676C30.842 67.9676 30.6152 68 30.3885 68C24.3627 68 18.337 68 12.3113 68C10.4971 68 9.29842 66.4774 9.78436 64.7927C10.0759 63.7885 10.9506 63.0433 12.0197 63.0433C15.3889 63.0433 18.7258 63.0433 22.095 63.0433C22.419 63.0433 22.6781 63.1405 22.9373 63.3025C25.3994 65.0843 28.0559 66.5097 30.8744 67.6436C30.9716 67.676 31.0364 67.7408 31.2632 67.9352V67.9676Z" fill="#2C8EE8"/>
<path d="M12.9901 60.7432C11.1435 60.7432 9.29687 60.7432 7.45028 60.7432C5.92765 60.7432 4.85857 59.7389 4.82617 58.3135C4.82617 56.8233 5.86286 55.819 7.45028 55.819C9.78282 55.819 12.083 55.819 14.4155 55.819C14.9014 55.819 15.2254 55.9486 15.517 56.3373C16.6185 57.698 17.7847 58.9938 19.0482 60.1925C19.1778 60.3221 19.4369 60.4517 19.3074 60.6784C19.2102 60.8404 18.9834 60.7756 18.8214 60.7756C16.8776 60.7756 14.9338 60.7756 12.9901 60.7756V60.7432Z" fill="#2C8EE8"/>
<path d="M7.48356 53.4541C5.83135 53.4541 4.21153 53.4541 2.55931 53.4541C1.03668 53.4541 0 52.4174 0 50.9596C0 49.5341 1.03668 48.5298 2.52692 48.4974C5.02144 48.4974 7.51596 48.4974 10.0105 48.4974C10.5288 48.4974 10.8204 48.6918 11.0472 49.1454C11.6303 50.3764 12.2458 51.5751 12.9909 52.7414C13.3149 53.2597 13.3149 53.4865 12.6022 53.4541C10.8852 53.4541 9.16817 53.4541 7.45117 53.4541H7.48356Z" fill="#2C8EE8"/>
<path d="M49.0806 36.4135C48.5622 36.4783 48.5298 36.1867 48.4974 35.8303C48.4002 34.6317 48.0763 34.1133 47.3636 34.0809C46.6508 34.0809 46.2297 34.5993 46.1973 35.7979C46.1973 36.3163 46.0029 36.4459 45.4846 36.3811C38.3574 35.636 32.4288 29.7074 31.6189 22.5478C31.5541 21.9971 31.7161 21.8027 32.2668 21.8351C32.3964 21.8351 32.526 21.8351 32.6556 21.8351C33.4331 21.7703 33.9191 21.3168 33.9515 20.7012C33.9515 20.0857 33.4655 19.5998 32.688 19.535C31.9537 19.4702 31.6297 19.0598 31.7161 18.3039C32.6232 11.4359 38.7461 5.53972 45.5494 4.95659C46.0029 4.92419 46.1649 5.05377 46.1973 5.53972C46.2621 6.73839 46.6184 7.25673 47.3312 7.28912C48.0439 7.28912 48.465 6.77078 48.4974 5.57212C48.4974 5.05377 48.6918 4.92419 49.2101 4.98898C56.3373 5.7341 62.2335 11.6626 63.0758 18.8222C63.1406 19.373 62.9786 19.5998 62.4603 19.535C62.3307 19.535 62.2011 19.535 62.0715 19.535C61.294 19.5998 60.8081 20.0533 60.7757 20.6688C60.7757 21.2844 61.2616 21.7703 62.0391 21.8351C62.7734 21.8999 63.0974 22.3102 63.011 23.0662C62.1039 29.9342 55.981 35.8303 49.1777 36.4135C49.113 36.4135 49.0806 36.4135 49.113 36.4135H49.0806ZM43.7028 21.8351C44.6747 21.8351 45.6789 21.8351 46.6508 21.8351C47.4607 21.8675 48.0439 21.5759 48.5946 21.0252C50.7004 18.8546 52.8709 16.7489 55.0091 14.6107C55.1387 14.4811 55.3007 14.3191 55.4303 14.1896C55.8514 13.6388 55.8514 13.0557 55.3979 12.6345C54.9119 12.181 54.3936 12.2134 53.9076 12.6345C53.7456 12.7641 53.5837 12.9585 53.4217 13.1205C51.4455 15.0967 49.5017 17.0404 47.5579 19.0166C47.1692 19.4378 46.748 19.5998 46.1649 19.5998C44.4155 19.5998 42.6337 19.5998 40.8843 19.5998C40.6899 19.5998 40.4955 19.5998 40.2687 19.5998C39.5236 19.6645 39.0053 20.1505 39.0053 20.766C39.0053 21.3815 39.5236 21.8675 40.2687 21.8999C41.435 21.9323 42.6013 21.8999 43.7352 21.8999L43.7028 21.8351Z" fill="#2C8EE8"/>
</svg>
