<svg width="24" height="25" viewBox="0 0 24 25" fill="none" xmlns="http://www.w3.org/2000/svg">
<path d="M14.4183 5.99C13.9422 5.90206 13.505 6.20586 13.4144 6.67054C13.3238 7.13522 13.6285 7.58891 14.0916 7.67984C15.4859 7.95166 16.5624 9.03092 16.8353 10.43V10.431C16.913 10.8337 17.2675 11.1265 17.6759 11.1265C17.7306 11.1265 17.7854 11.1215 17.8412 11.1115C18.3043 11.0186 18.609 10.5659 18.5184 10.1002C18.1111 8.01062 16.5027 6.39672 14.4183 5.99Z" fill="white"/>
<path d="M14.3558 2.50793C14.1328 2.47595 13.9087 2.54191 13.7304 2.68381C13.5472 2.82771 13.4326 3.03557 13.4078 3.26841C13.355 3.73908 13.6946 4.16479 14.1646 4.21776C17.4063 4.57951 19.9259 7.10477 20.2904 10.3565C20.3392 10.7922 20.7047 11.121 21.1409 11.121C21.1738 11.121 21.2057 11.119 21.2385 11.115C21.4666 11.09 21.6698 10.9771 21.8132 10.7972C21.9556 10.6174 22.0203 10.3935 21.9944 10.1647C21.5403 6.10746 18.4002 2.95862 14.3558 2.50793Z" fill="white"/>
<path fill-rule="evenodd" clipRule="evenodd" d="M11.0317 13.4724C15.0208 17.4604 15.9258 12.8467 18.4656 15.3848C20.9143 17.8328 22.3216 18.3232 19.2192 21.4247C18.8306 21.737 16.3616 25.4943 7.6846 16.8197C-0.993478 8.144 2.76158 5.67244 3.07397 5.28395C6.18387 2.17385 6.66586 3.58938 9.11449 6.03733C11.6544 8.5765 7.04266 9.48441 11.0317 13.4724Z" fill="white"/>
</svg>
