<svg width="16" height="17" viewBox="0 0 16 17" fill="none" xmlns="http://www.w3.org/2000/svg">
<path d="M14.668 4.49992V6.11325C14.668 7.16658 14.0013 7.83325 12.948 7.83325H10.668V3.17325C10.668 2.43325 11.2746 1.83325 12.0146 1.83325C12.7413 1.83992 13.408 2.13325 13.888 2.61325C14.368 3.09992 14.668 3.76659 14.668 4.49992Z" stroke="#909090" stroke-miterlimit="10" stroke-linecap="round" stroke-linejoin="round"/>
<path d="M1.33203 5.16659V14.4999C1.33203 15.0533 1.9587 15.3666 2.3987 15.0333L3.5387 14.1799C3.80536 13.9799 4.1787 14.0066 4.4187 14.2466L5.52537 15.3599C5.78537 15.6199 6.21203 15.6199 6.47203 15.3599L7.59203 14.2399C7.82536 14.0066 8.1987 13.9799 8.4587 14.1799L9.5987 15.0333C10.0387 15.3599 10.6654 15.0466 10.6654 14.4999V3.16659C10.6654 2.43325 11.2654 1.83325 11.9987 1.83325H4.66536H3.9987C1.9987 1.83325 1.33203 3.02659 1.33203 4.49992V5.16659Z" stroke="#909090" stroke-miterlimit="10" stroke-linecap="round" stroke-linejoin="round"/>
<path d="M4.16797 7.16675H7.83464" stroke="#909090" stroke-linecap="round" stroke-linejoin="round"/>
</svg>
