<svg width="24" height="24" viewBox="0 0 24 24" fill="none" xmlns="http://www.w3.org/2000/svg">
<path fill-rule="evenodd" clip-rule="evenodd" d="M13.303 5.33301C13.303 3.49301 14.803 2.00001 16.651 2.00001C17.0897 1.99896 17.5244 2.08433 17.9302 2.25126C18.3359 2.41819 18.7048 2.66341 19.0158 2.97291C19.3268 3.2824 19.5738 3.65012 19.7426 4.05507C19.9115 4.46002 19.999 4.89426 20 5.33301C20 7.17401 18.5 8.66701 16.651 8.66701C16.2076 8.66756 15.7685 8.57996 15.3592 8.40932C14.95 8.23868 14.5787 7.98839 14.267 7.67301L9.632 10.829C9.76108 11.472 9.69778 12.1388 9.45 12.746L14.532 16.086C15.1306 15.5978 15.8796 15.3318 16.652 15.333C17.0907 15.3321 17.5254 15.4176 17.9311 15.5846C18.3368 15.7517 18.7056 15.997 19.0165 16.3066C19.3274 16.6162 19.5743 16.984 19.743 17.389C19.9118 17.794 19.9991 18.2283 20 18.667C20 20.507 18.5 22 16.651 22C15.7651 22.0019 14.9147 21.6518 14.2869 21.0268C13.659 20.4017 13.3051 19.5529 13.303 18.667C13.3022 18.1996 13.4007 17.7374 13.592 17.311L8.55 14C7.93941 14.5309 7.15712 14.8226 6.348 14.821C5.90922 14.8221 5.47453 14.7366 5.06877 14.5696C4.66301 14.4026 4.29413 14.1573 3.98321 13.8477C3.67229 13.5381 3.42543 13.1702 3.25673 12.7652C3.08802 12.3601 3.00079 11.9258 3 11.487C3.00092 11.0483 3.08825 10.6141 3.25701 10.2091C3.42578 9.80421 3.67266 9.43648 3.98356 9.12697C4.29447 8.81746 4.6633 8.57223 5.069 8.40528C5.47469 8.23834 5.9093 8.15296 6.348 8.15401C7.412 8.15401 8.358 8.64701 8.971 9.41501L13.464 6.35601C13.3571 6.02554 13.3028 5.68034 13.303 5.33301Z" fill="#909090"/>
</svg>
