<svg width="21" height="15" viewBox="0 0 21 15" fill="none" xmlns="http://www.w3.org/2000/svg">
<path fill-rule="evenodd" clip-rule="evenodd" d="M20.3356 7.375C20.3356 7.67455 20.2166 7.96183 20.0047 8.17364C19.7928 8.38545 19.5055 8.50445 19.2058 8.50445H3.85543L7.95288 12.6006C8.15245 12.8147 8.2611 13.0979 8.25594 13.3905C8.25077 13.6831 8.1322 13.9623 7.9252 14.1692C7.7182 14.3761 7.43893 14.4947 7.14623 14.4998C6.85353 14.505 6.57026 14.3964 6.35608 14.1969L0.330417 8.17314C0.118841 7.96137 0 7.67431 0 7.375C0 7.0757 0.118841 6.78863 0.330417 6.57686L6.35608 0.553133C6.57026 0.353627 6.85353 0.245013 7.14623 0.250176C7.43893 0.255339 7.7182 0.373875 7.9252 0.58081C8.1322 0.787745 8.25077 1.06692 8.25594 1.35953C8.2611 1.65213 8.15245 1.93531 7.95288 2.14942L3.85543 6.24555L19.2058 6.24555C19.5055 6.24555 19.7928 6.36455 20.0047 6.57636C20.2166 6.78817 20.3356 7.07545 20.3356 7.375Z" fill="white"/>
</svg>
