<svg width="17" height="17" viewBox="0 0 17 17" fill="none" xmlns="http://www.w3.org/2000/svg">
<path d="M16.5 8.5C16.5 10.6217 15.6571 12.6566 14.1569 14.1569C12.6566 15.6571 10.6217 16.5 8.5 16.5C6.37827 16.5 4.34344 15.6571 2.84315 14.1569C1.34285 12.6566 0.5 10.6217 0.5 8.5C0.5 6.37827 1.34285 4.34344 2.84315 2.84315C4.34344 1.34285 6.37827 0.5 8.5 0.5C10.6217 0.5 12.6566 1.34285 14.1569 2.84315C15.6571 4.34344 16.5 6.37827 16.5 8.5ZM6.10582 5.076C5.96926 4.93944 5.78404 4.86272 5.59091 4.86272C5.39778 4.86272 5.21256 4.93944 5.076 5.076C4.93944 5.21256 4.86272 5.39778 4.86272 5.59091C4.86272 5.78404 4.93944 5.96926 5.076 6.10582L7.47164 8.5L5.076 10.8942C4.93944 11.0307 4.86272 11.216 4.86272 11.4091C4.86272 11.6022 4.93944 11.7874 5.076 11.924C5.21256 12.0606 5.39778 12.1373 5.59091 12.1373C5.78404 12.1373 5.96926 12.0606 6.10582 11.924L8.5 9.52837L10.8942 11.924C10.9618 11.9916 11.0421 12.0453 11.1304 12.0819C11.2188 12.1184 11.3135 12.1373 11.4091 12.1373C11.5047 12.1373 11.5994 12.1184 11.6878 12.0819C11.7761 12.0453 11.8564 11.9916 11.924 11.924C11.9916 11.8564 12.0453 11.7761 12.0819 11.6878C12.1184 11.5994 12.1373 11.5047 12.1373 11.4091C12.1373 11.3135 12.1184 11.2188 12.0819 11.1304C12.0453 11.0421 11.9916 10.9618 11.924 10.8942L9.52837 8.5L11.924 6.10582C12.0606 5.96926 12.1373 5.78404 12.1373 5.59091C12.1373 5.39778 12.0606 5.21256 11.924 5.076C11.7874 4.93944 11.6022 4.86272 11.4091 4.86272C11.216 4.86272 11.0307 4.93944 10.8942 5.076L8.5 7.47164L6.10582 5.076Z" fill="#D1D1D1"/>
</svg>
